HIERARCHY
ROOT Hips
{
	OFFSET 0.00000 0.00000 0.00000
	CHANNELS 6 Xposition Yposition Zposition Zrotation Yrotation Xrotation 
	JOINT LHipJoint
	{
		OFFSET 0 0 0
		CHANNELS 3 Zrotation Yrotation Xrotation
		JOINT LeftUpLeg
		{
			OFFSET 1.65674 -1.80282 0.62477
			CHANNELS 3 Zrotation Yrotation Xrotation
			JOINT LeftLeg
			{
				OFFSET 2.59720 -7.13576 0.00000
				CHANNELS 3 Zrotation Yrotation Xrotation
				JOINT LeftFoot
				{
					OFFSET 2.49236 -6.84770 0.00000
					CHANNELS 3 Zrotation Yrotation Xrotation
					JOINT LeftToeBase
					{
						OFFSET 0.19704 -0.54136 2.14581
						CHANNELS 3 Zrotation Yrotation Xrotation
						End Site
						{
							OFFSET 0.00000 -0.00000 1.11249
						}
					}
				}
			}
		}
	}
	JOINT RHipJoint
	{
		OFFSET 0 0 0
		CHANNELS 3 Zrotation Yrotation Xrotation
		JOINT RightUpLeg
		{
			OFFSET -1.61070 -1.80282 0.62476
			CHANNELS 3 Zrotation Yrotation Xrotation
			JOINT RightLeg
			{
				OFFSET -2.59502 -7.12977 0.00000
				CHANNELS 3 Zrotation Yrotation Xrotation
				JOINT RightFoot
				{
					OFFSET -2.46780 -6.78024 0.00000
					CHANNELS 3 Zrotation Yrotation Xrotation
					JOINT RightToeBase
					{
						OFFSET -0.23024 -0.63258 2.13368
						CHANNELS 3 Zrotation Yrotation Xrotation
						End Site
						{
							OFFSET -0.00000 -0.00000 1.11569
						}
					}
				}
			}
		}
	}
	JOINT LowerBack
	{
		OFFSET 0 0 0
		CHANNELS 3 Zrotation Yrotation Xrotation
		JOINT Spine
		{
			OFFSET 0.01961 2.05450 -0.14112
			CHANNELS 3 Zrotation Yrotation Xrotation
			JOINT Spine1
			{
				OFFSET 0.01021 2.06436 -0.05921
				CHANNELS 3 Zrotation Yrotation Xrotation
				JOINT Neck
				{
					OFFSET 0 0 0
					CHANNELS 3 Zrotation Yrotation Xrotation
					JOINT Neck1
					{
						OFFSET 0.00713 1.56711 0.14968
						CHANNELS 3 Zrotation Yrotation Xrotation
						JOINT Head
						{
							OFFSET 0.03429 1.56041 -0.10006
							CHANNELS 3 Zrotation Yrotation Xrotation
							End Site
							{
								OFFSET 0.01305 1.62560 -0.05265
							}
						}
					}
				}
				JOINT LeftShoulder
				{
					OFFSET 0 0 0
					CHANNELS 3 Zrotation Yrotation Xrotation
					JOINT LeftArm
					{
						OFFSET 3.54205 0.90436 -0.17364
						CHANNELS 3 Zrotation Yrotation Xrotation
						JOINT LeftForeArm
						{
							OFFSET 4.86513 -0.00000 -0.00000
							CHANNELS 3 Zrotation Yrotation Xrotation
							JOINT LeftHand
							{
								OFFSET 3.35554 -0.00000 0.00000
								CHANNELS 3 Zrotation Yrotation Xrotation
								JOINT LeftFingerBase
								{
									OFFSET 0 0 0
									CHANNELS 3 Zrotation Yrotation Xrotation
									JOINT LeftHandIndex1
									{
										OFFSET 0.66117 -0.00000 0.00000
										CHANNELS 3 Zrotation Yrotation Xrotation
										End Site
										{
											OFFSET 0.53306 -0.00000 0.00000
										}
									}
								}
								JOINT LThumb
								{
									OFFSET 0 0 0
									CHANNELS 3 Zrotation Yrotation Xrotation
									End Site
									{
										OFFSET 0.54120 -0.00000 0.54120
									}
								}
							}
						}
					}
				}
				JOINT RightShoulder
				{
					OFFSET 0 0 0
					CHANNELS 3 Zrotation Yrotation Xrotation
					JOINT RightArm
					{
						OFFSET -3.49802 0.75994 -0.32616
						CHANNELS 3 Zrotation Yrotation Xrotation
						JOINT RightForeArm
						{
							OFFSET -5.02649 -0.00000 0.00000
							CHANNELS 3 Zrotation Yrotation Xrotation
							JOINT RightHand
							{
								OFFSET -3.36431 -0.00000 0.00000
								CHANNELS 3 Zrotation Yrotation Xrotation
								JOINT RightFingerBase
								{
									OFFSET 0 0 0
									CHANNELS 3 Zrotation Yrotation Xrotation
									JOINT RightHandIndex1
									{
										OFFSET -0.73041 -0.00000 0.00000
										CHANNELS 3 Zrotation Yrotation Xrotation
										End Site
										{
											OFFSET -0.58887 -0.00000 0.00000
										}
									}
								}
								JOINT RThumb
								{
									OFFSET 0 0 0
									CHANNELS 3 Zrotation Yrotation Xrotation
									End Site
									{
										OFFSET -0.59786 -0.00000 0.59786
									}
								}
							}
						}
					}
				}
			}
		}
	}
}
MOTION
Frames: 12
Frame Time: 0.0333333
0.00 0.00 0.00 0 0 0 0 0 0 -21 0 0 0 0 0 0 0 0 0 0 0 0 0 0 21 0 0 0 0 0 0 0 0 0 0 0 0 0 0 0 0 0 0 0 0 0 0 -16 0 0 21 0 0 11 0 0 0 -8 0 0 0 0 0 0 0 0 0 0 0 0 0 0 0 0 0 0 0 0 8 0 0 0 0 0 0 0 0 0 0 0 0 0 0 0 0 0
0.00 0.00 0.00 4.2408 -20.1024 -10.7766 0.0000 0.0000 0.0000 -20.6771 -4.5960 -4.5766 0.7144 5.4015 15.0575 -0.8155 15.8588 -3.9231 0.3061 -3.5573 -9.8344 0.0000 0.0000 0.0000 17.7763 -7.2217 8.8507 -1.0005 -6.3651 17.8475 -0.7271 -13.4062 -25.9716 -0.0002 -0.0974 0.2675 1.7168 1.3542 -0.3015 0.1645 1.7965 0.2196 -0.7800 0.9029 0.4412 -0.6832 2.6080 -11.7317 1.3643 3.4605 9.1000 0.7843 1.7627 4.6057 -0.0000 -0.0000 0.0000 -90.9543 -63.5740 63.6050 52.1988 -53.8447 -27.9400 -0.0000 0.0000 -44.6223 51.5093 17.8795 21.1116 -7.1250 0.0000 -0.0000 26.2471 55.3794 7.0407 -0.0000 -0.0000 0.0000 102.5196 54.8834 91.4186 -30.9065 41.6578 -12.0076 0.0000 -0.0000 -30.5171 -52.7616 20.8632 -25.1051 7.1250 -0.0000 -0.0000 -14.5006 1.3309 -15.3284
0.00 0.00 0.00 4.5802 -20.1187 -11.8338 0.0000 0.0000 0.0000 -20.5713 -4.3297 -3.7717 0.7752 5.6217 15.6907 -0.7923 15.6545 -3.7317 0.4414 -4.2629 -11.8176 0.0000 0.0000 0.0000 17.7946 -7.7222 9.5987 -1.0819 -6.6111 18.5683 -0.8475 -13.1166 -26.6185 -0.0007 0.1650 -0.4534 1.7538 2.1116 -0.4787 0.1014 2.8093 -0.5019 -0.8665 1.3994 -0.1666 -0.3088 2.0405 -11.3675 1.6706 2.5884 10.6841 0.7664 1.3686 5.0471 -0.0000 0.0000 0.0000 -74.9811 -80.7794 55.0564 63.1230 -57.0863 -36.9515 -0.0000 0.0000 -41.2393 53.7186 18.5530 23.4341 -7.1250 0.0000 -0.0000 29.6670 56.9628 9.2513 -0.0000 0.0000 0.0000 110.5803 70.2285 94.2168 -32.2747 42.7651 -12.9270 0.0000 -0.0000 -24.3698 -55.6648 23.3673 -30.1421 7.1250 -0.0000 -0.0000 -15.3926 6.2956 -17.6032
0.00 0.00 0.00 4.4149 -19.8242 -11.9415 0.0000 0.0000 0.0000 -20.2617 -4.8502 -4.1257 0.8745 5.9620 16.6742 -0.7777 15.4501 -4.3228 0.3436 -3.7663 -10.4202 0.0000 0.0000 0.0000 17.9827 -8.1811 10.0832 -1.0051 -6.3795 17.8897 -0.8241 -13.2306 -26.5505 -0.0000 -0.0004 0.0010 1.9289 2.1532 -0.5599 0.3857 2.8648 -0.7216 -0.6755 1.4237 -0.3506 -0.3752 2.1638 -10.7838 1.5158 2.7884 10.3579 0.7329 1.4522 4.8478 0.0000 0.0000 0.0000 -53.5007 -85.4797 34.4966 64.8772 -57.4754 -38.4274 -0.0000 0.0000 -40.3645 53.2693 17.4017 21.8401 -7.1250 0.0000 -0.0000 28.3464 55.2880 7.6059 0.0000 0.0000 0.0000 115.5591 74.7057 98.6307 -32.7722 43.1542 -13.2660 0.0000 -0.0000 -23.2015 -57.2152 23.9207 -32.1919 7.1250 -0.0000 -0.0000 -16.0636 8.0022 -18.8492
0.00 0.00 0.00 4.6056 -19.4324 -12.0137 0.0000 0.0000 0.0000 -20.5371 -4.2221 -4.3094 0.8976 6.0383 16.8956 -0.6967 14.6390 -4.1973 0.3975 -4.0482 -11.2123 0.0000 0.0000 0.0000 17.8493 -8.2627 9.9373 -1.0740 -6.5876 18.4991 -0.9359 -12.9992 -27.1716 -0.0003 -0.1095 0.3008 1.7434 2.1677 -0.8179 0.4097 2.8794 -0.7953 -0.5387 1.4318 -0.2916 -1.6493 1.9955 -11.8079 2.7161 2.6102 11.7457 1.3291 1.3978 5.4178 0.0000 0.0000 0.0000 -17.1907 -86.8983 -1.4090 67.2861 -57.9579 -40.4640 -0.0000 0.0000 -40.4610 53.3264 17.0335 21.4734 -7.1250 0.0000 -0.0000 28.2114 54.8114 7.2267 0.0000 0.0000 0.0000 120.9777 77.2808 103.6061 -32.7490 43.1362 -13.2501 0.0000 -0.0000 -21.9222 -57.7918 24.0267 -32.8769 7.1250 -0.0000 -0.0000 -16.3401 8.5223 -19.3259
0.00 0.00 0.00 4.9335 -19.2642 -12.3289 0.0000 0.0000 0.0000 -20.8259 -4.6334 -4.1042 0.9245 6.1256 17.1493 -0.7289 14.9457 -4.5670 0.3610 -3.8598 -10.6825 0.0000 0.0000 0.0000 17.5676 -8.2914 10.1914 -1.0857 -6.6222 18.6009 -0.9653 -13.0282 -27.4168 -0.0006 -0.1622 0.4456 1.3365 2.2360 -0.8263 0.4097 2.9740 -0.9689 -0.3157 1.4790 -0.4830 -0.5110 2.1500 -11.2478 1.6764 2.7594 12.2145 0.8282 1.4448 5.4992 0.0000 0.0000 0.0000 24.6872 -86.4762 -42.8628 69.3405 -58.3242 -42.2090 -0.0000 0.0000 -39.1926 52.8047 16.3974 20.4041 -7.1250 0.0000 -0.0000 27.1760 53.7918 6.2304 0.0000 0.0000 0.0000 125.7165 79.0923 107.2880 -33.9685 44.0614 -14.0912 0.0000 -0.0000 -20.6950 -58.8249 25.0900 -35.0251 7.1250 -0.0000 -0.0000 -16.5676 10.6315 -20.1164
0.00 0.00 0.00 4.6932 -19.1762 -12.3608 0.0000 0.0000 0.0000 -20.5045 -4.3787 -4.1108 0.9560 6.2263 17.4423 -0.6791 14.4430 -4.3720 0.3744 -3.9299 -10.8795 0.0000 0.0000 0.0000 17.8659 -8.5024 10.2309 -1.1140 -6.7053 18.8451 -0.9565 -13.1758 -27.4914 -0.0046 0.4400 -1.2090 1.5295 2.3017 -0.9825 0.5364 3.0569 -0.9273 -0.2851 1.5206 -0.3486 0.5000 2.0119 -11.9556 -0.1738 2.6603 12.4935 0.0869 1.3056 5.7485 -0.0000 -0.0000 0.0000 56.5923 -84.5571 -74.4549 70.0770 -58.4458 -42.8362 -0.0000 0.0000 -38.7145 52.7287 15.1829 18.9910 -7.1250 0.0000 -0.0000 26.4481 52.1119 4.9137 -0.0000 -0.0000 0.0000 133.8835 81.5992 115.3272 -34.6472 44.5586 -14.5653 0.0000 -0.0000 -21.0937 -58.2295 25.3374 -34.6446 7.1250 -0.0000 -0.0000 -16.1764 10.5410 -19.5836
0.00 0.00 0.00 5.2608 -18.2819 -13.1030 0.0000 0.0000 0.0000 -21.1445 -3.7678 -3.9685 1.0178 6.4184 18.0034 -0.5669 13.2086 -4.3551 0.3040 -3.5450 -9.7998 0.0000 0.0000 0.0000 17.1623 -9.1124 10.2969 -1.2547 -7.1013 20.0158 -1.1745 -12.6268 -28.5487 -0.0000 0.0148 -0.0405 1.1946 2.4279 -0.4136 0.2951 3.2371 -0.9933 -0.3724 1.6096 -0.7363 -1.0371 1.8310 -12.6547 1.9132 2.3843 13.5085 0.9897 1.2574 6.1403 -0.0000 0.0000 0.0000 76.4859 -80.7524 -94.0494 74.1388 -59.0277 -46.3086 -0.0000 0.0000 -37.3251 52.3603 14.5969 18.0965 -7.1250 0.0000 -0.0000 25.7137 51.1993 4.1607 -0.0000 0.0000 0.0000 158.8891 84.7287 138.6137 -36.0898 45.5748 -15.5866 0.0000 -0.0000 -19.3991 -60.1231 26.1248 -37.4691 7.1250 -0.0000 -0.0000 -16.9312 12.9125 -21.1113
0.00 0.00 0.00 4.7830 -17.9856 -13.0205 0.0000 0.0000 0.0000 -20.4478 -3.6950 -5.0584 1.2602 7.1162 20.0601 -0.4815 12.1863 -4.5139 0.3140 -3.6023 -9.9604 0.0000 0.0000 0.0000 17.7110 -9.7175 10.6715 -1.1676 -6.8591 19.2986 -1.0900 -12.9869 -28.2776 -0.0000 -0.0337 0.0926 1.5373 2.2733 -0.8748 0.4517 3.0205 -0.8438 -0.3788 1.5029 -0.3190 -0.4311 2.1548 -14.4781 1.5320 2.7627 15.0151 0.8459 1.4422 6.9448 0.0000 0.0000 0.0000 78.8501 -77.7779 -96.4947 77.3823 -59.3898 -49.0951 -0.0000 0.0000 -36.1165 52.4398 13.9761 17.4358 -7.1250 0.0000 -0.0000 25.5092 50.3605 3.5735 0.0000 0.0000 0.0000 -168.3270 84.2644 169.7019 -36.8711 46.1029 -16.1471 0.0000 -0.0000 -18.1038 -58.0635 26.4547 -35.5532 7.1250 -0.0000 -0.0000 -15.7426 11.8631 -19.3029
0.00 0.00 0.00 -1.5783 -42.3356 11.5529 0.0000 0.0000 0.0000 -16.3627 2.3277 -38.0528 3.0118 10.7142 31.3218 -0.2707 9.7172 -6.9742 0.0502 -1.4461 -3.9773 0.0000 0.0000 0.0000 16.5596 12.1862 -15.9368 -2.2754 -9.4176 27.1106 -0.7042 -5.9638 -19.1258 -0.4333 4.2243 -11.7087 1.2347 1.1132 15.6041 1.3715 1.4999 6.8590 0.4925 0.6762 -1.4814 1.7821 5.7630 -15.1823 -3.8528 7.2523 -5.9397 -1.1293 3.4769 0.8690 0.0000 -0.0000 0.0000 -86.2275 -70.6898 43.6352 33.6264 -43.8060 -13.8538 -0.0000 0.0000 -50.6677 46.8638 24.4308 23.8175 -7.1250 0.0000 -0.0000 22.3748 62.1939 9.6123 0.0000 -0.0000 0.0000 118.3207 55.4412 104.2767 -25.3430 36.5526 -8.4934 0.0000 -0.0000 -34.2582 -44.0878 11.7399 -11.1496 7.1250 -0.0000 -0.0000 -11.4473 -14.0678 -8.4961
0.00 0.00 0.00 1.5921 -15.9677 -16.2484 0.0000 0.0000 0.0000 -17.4692 -2.9381 -9.2461 2.5523 9.9324 28.7580 -0.2556 9.0295 -4.8052 0.0335 -1.1820 -3.2496 0.0000 0.0000 0.0000 19.8058 -10.1398 13.5934 -1.6777 -8.1597 23.2002 -1.8772 -8.0132 -29.7991 -0.0144 0.7741 -2.1273 4.2646 2.6777 3.3224 1.1466 3.6585 2.6964 -1.2831 1.8836 1.1054 -0.1118 3.8089 -15.0424 -2.6018 5.3573 6.0883 -0.3610 2.4671 4.3175 -0.0000 0.0000 0.0000 51.0197 -76.8723 -72.9921 92.5521 -59.9754 -62.2100 -0.0000 0.0000 -31.6250 50.3889 15.0752 17.4461 -7.1250 0.0000 -0.0000 23.6041 51.3148 3.8532 -0.0000 0.0000 0.0000 178.4127 76.5977 156.7174 -40.3596 48.2815 -18.7072 0.0000 -0.0000 -18.4927 -58.8610 30.7687 -40.2560 7.1250 -0.0000 -0.0000 -14.7326 17.6876 -19.0292
0.00 0.00 0.00 -0.5555 -16.6557 -12.6721 0.0000 0.0000 0.0000 -15.3086 -3.8230 -13.8099 2.9342 10.5878 30.9020 -0.2254 8.5603 -4.9870 0.0502 -1.4466 -3.9786 0.0000 0.0000 0.0000 22.3478 -8.3594 10.4615 -1.6632 -8.1261 23.0977 -1.7077 -9.0426 -29.3710 -0.0425 1.3298 -3.6567 4.7525 2.4962 4.9947 1.6191 3.4814 3.6986 -1.1191 1.8108 1.2002 -0.2874 3.7645 -14.2740 -2.6014 5.2172 2.5068 -0.4253 2.4537 3.4142 -0.0000 -0.0000 0.0000 25.5879 -81.2712 -50.8891 82.3573 -59.7781 -53.3862 -0.0000 0.0000 -36.3409 50.7464 17.3747 20.0745 -7.1250 0.0000 -0.0000 25.0187 54.4862 6.1201 -0.0000 -0.0000 0.0000 152.1982 73.0961 130.7566 -37.5717 46.5636 -16.6539 0.0000 -0.0000 -20.5030 -57.6496 28.5710 -37.0543 7.1250 -0.0000 -0.0000 -14.8484 14.2161 -18.5848
